<svg xmlns="http://www.w3.org/2000/svg" width="23" height="23" viewBox="0 0 23 23">
    <g fill="#B4BDC7" fill-rule="nonzero">
        <path d="M11.5.137C5.234.137.137 5.234.137 11.5c0 6.266 5.098 11.363 11.363 11.363S22.863 17.766 22.863 11.5C22.863 5.234 17.766.137 11.5.137zm0 21.226c-5.439 0-9.863-4.424-9.863-9.863 0-5.439 4.424-9.863 9.863-9.863 5.439 0 9.863 4.425 9.863 9.863 0 5.439-4.425 9.863-9.863 9.863z"/>
        <path d="M11.5 4.824a1.161 1.161 0 0 0-.82 1.98 1.161 1.161 0 0 0 1.98-.82c0-.64-.52-1.16-1.16-1.16zM11.5 9.047a.98.98 0 0 0-.979.98v7.413a.98.98 0 0 0 1.958 0v-7.414a.98.98 0 0 0-.979-.979z"/>
    </g>
</svg>
